<svg width="100" height="33" viewBox="0 0 113 33" fill="none" xmlns="http://www.w3.org/2000/svg">
<path fill-rule="evenodd" clip-rule="evenodd" d="M1.48222e-06 16.5C1.48222e-06 16.9862 0.425161 17.4524 1.18196 17.7962C1.93875 18.14 2.96519 18.3331 4.03546 18.3331H99.2157L73.8166 29.8668C73.0588 30.211 72.6331 30.6778 72.6331 31.1646C72.6331 31.6514 73.0588 32.1182 73.8166 32.4624C74.5743 32.8066 75.6021 33 76.6737 33C77.7453 33 78.773 32.8066 79.5308 32.4624L111.814 17.7978C112.19 17.6275 112.488 17.4253 112.692 17.2026C112.895 16.9799 113 16.7411 113 16.5C113 16.2589 112.895 16.0201 112.692 15.7974C112.488 15.5747 112.19 15.3725 111.814 15.2022L79.5308 0.537573C79.1556 0.367141 78.7102 0.231948 78.2199 0.139711C77.7297 0.0474739 77.2043 0 76.6737 0C75.6021 0 74.5743 0.193371 73.8166 0.537573C73.0588 0.881776 72.6331 1.34862 72.6331 1.83539C72.6331 2.32217 73.0588 2.78901 73.8166 3.13321L99.2157 14.6669L4.03546 14.6669C2.96519 14.6669 1.93875 14.8601 1.18196 15.2038C0.425161 15.5476 1.48222e-06 16.0138 1.48222e-06 16.5Z" fill="#0997E3"/>
</svg>
