<svg width="212" height="212" viewBox="0 0 212 212" fill="none" xmlns="http://www.w3.org/2000/svg">
<path d="M59.625 185.5H82.9052C72.1157 172.457 66.2242 156.053 66.25 139.125C66.25 114.48 78.4797 92.6838 97.2152 79.5H26.5V152.375C26.5 161.16 29.9899 169.586 36.2021 175.798C42.4142 182.01 50.8397 185.5 59.625 185.5V185.5Z" fill="black"/>
<path d="M185.5 66.25H26.5V59.625C26.5 50.8397 29.9899 42.4142 36.2021 36.2021C42.4142 29.9899 50.8397 26.5 59.625 26.5H152.375C161.16 26.5 169.586 29.9899 175.798 36.2021C182.01 42.4142 185.5 50.8397 185.5 59.625V66.25Z" fill="black"/>
<path d="M139.125 198.75C146.955 198.75 154.708 197.208 161.942 194.211C169.177 191.215 175.75 186.823 181.286 181.286C186.823 175.75 191.215 169.177 194.211 161.942C197.208 154.708 198.75 146.955 198.75 139.125C198.75 131.295 197.208 123.542 194.211 116.308C191.215 109.073 186.823 102.5 181.286 96.9638C175.75 91.4271 169.177 87.0351 161.942 84.0387C154.708 81.0422 146.955 79.5 139.125 79.5C123.311 79.5 108.146 85.7819 96.9638 96.9638C85.7819 108.146 79.5 123.311 79.5 139.125C79.5 154.939 85.7819 170.104 96.9638 181.286C108.146 192.468 123.311 198.75 139.125 198.75V198.75ZM132.5 112.625C132.5 110.868 133.198 109.183 134.44 107.94C135.683 106.698 137.368 106 139.125 106C140.882 106 142.567 106.698 143.81 107.94C145.052 109.183 145.75 110.868 145.75 112.625V132.5H159C160.757 132.5 162.442 133.198 163.685 134.44C164.927 135.683 165.625 137.368 165.625 139.125C165.625 140.882 164.927 142.567 163.685 143.81C162.442 145.052 160.757 145.75 159 145.75H139.125C137.368 145.75 135.683 145.052 134.44 143.81C133.198 142.567 132.5 140.882 132.5 139.125V112.625Z" fill="black"/>
</svg>
