<svg width="831" height="712" viewBox="0 0 831 712" fill="none" xmlns="http://www.w3.org/2000/svg">
<g clip-path="url(#clip0)">
<g id="message-chatpage">
<path d="M68.3479 169.893H455V296.824H440.354V330.021L407.157 296.824H68.3479V169.893Z" fill="#E6E6E6"/>
<path d="M444.26 182.253H79.0879V283.799H444.26V182.253Z" fill="white"/>
<path d="M284.274 211.9H108.453V217.236H284.274V211.9Z" fill="#0997E3"/>
<path d="M414.894 230.358H108.453V235.694H414.894V230.358Z" fill="#E6E6E6"/>
<path d="M414.594 248.816H108.453V254.152H414.594V248.816Z" fill="#E6E6E6"/>
</g>
<g id="message-chatpage">
<path d="M386.652 339.785H0V466.717H14.646V499.914L47.843 466.717H386.652V339.785Z" fill="#E6E6E6"/>
<path d="M375.912 352.146H10.7402V453.691H375.912V352.146Z" fill="white"/>
<path d="M218.856 382.769H43.0349V388.105H218.856V382.769Z" fill="#0997E3"/>
<path d="M349.476 401.227H43.0349V406.563H349.476V401.227Z" fill="#E6E6E6"/>
<path d="M349.176 419.685H43.0349V425.021H349.176V419.685Z" fill="#E6E6E6"/>
</g>
<g id="message-chatpage">
<path d="M386.652 0H0V126.931H14.646V160.129L47.843 126.931H386.652V0Z" fill="#E6E6E6"/>
<path d="M375.912 12.3608H10.7402V113.906H375.912V12.3608Z" fill="white"/>
<path d="M218.856 42.9839H43.0349V48.3196H218.856V42.9839Z" fill="#0997E3"/>
<path d="M349.476 61.4419H43.0349V66.7776H349.476V61.4419Z" fill="#E6E6E6"/>
<path d="M349.176 79.8998H43.0349V85.2355H349.176V79.8998Z" fill="#E6E6E6"/>
</g>
<path d="M679.314 695.51L663.401 695.509L655.83 634.126L679.317 634.128L679.314 695.51Z" fill="#FFB8B8"/>
<path d="M683.373 710.936L632.06 710.934V710.285C632.06 704.988 634.164 699.908 637.91 696.163C641.655 692.417 646.735 690.313 652.032 690.313H652.033L683.374 690.314L683.373 710.936Z" fill="#2F2E41"/>
<path d="M656.939 649.359L642.131 655.186L612.608 600.84L634.464 592.24L656.939 649.359Z" fill="#FFB8B8"/>
<path d="M666.365 662.227L618.615 681.016L618.378 680.412C616.438 675.483 616.536 669.986 618.65 665.129C620.764 660.272 624.72 656.453 629.649 654.513L629.65 654.513L658.814 643.038L666.365 662.227Z" fill="#2F2E41"/>
<path d="M652.089 675.565L657.156 489.34L634.608 569.173L650.9 624.566L623.871 647.541L596.319 559.636L596.27 559.481L623.655 414.734L704.645 410.816L705.225 410.786L705.318 411.359C705.396 411.841 713.049 459.901 706.613 494.657C700.202 529.28 684.709 676.153 684.553 677.633L684.487 678.265L652.089 675.565Z" fill="#2F2E41"/>
<path d="M627.85 426.344L627.393 426.162L642.423 288.277L642.862 288.168C658.137 284.348 678.717 284.682 689.626 285.22C691.28 285.306 692.853 285.958 694.082 287.068C695.311 288.177 696.121 289.676 696.374 291.313L714.444 410.325L714.295 410.538C701.802 428.384 682.713 433.235 665.646 433.235C652.751 433.07 639.974 430.74 627.85 426.344Z" fill="#12BDCC"/>
<path d="M699.426 466.628L698.883 466.579L689.283 284.864L718.454 291.452C721.64 292.182 724.441 294.071 726.313 296.752C728.184 299.432 728.992 302.713 728.579 305.956L724.796 336.161L726.092 389.3C726.996 392.564 741.766 446.635 733.56 460.724C733.145 461.522 732.57 462.227 731.872 462.793C731.173 463.359 730.364 463.776 729.497 464.016C721.619 465.908 713.542 466.854 705.439 466.831C701.757 466.83 699.482 466.633 699.426 466.628Z" fill="#3F3D56"/>
<path d="M613.522 467.86C612.104 467.225 610.848 466.277 609.847 465.088C608.846 463.899 608.127 462.499 607.743 460.994C605.842 453.341 612.259 443.717 613.185 442.381L620.946 368.648L609.402 300.533C609.204 299.368 609.246 298.175 609.526 297.027C609.806 295.879 610.317 294.8 611.028 293.857C611.74 292.913 612.636 292.125 613.663 291.54C614.689 290.955 615.824 290.585 616.999 290.454L649.883 286.787L648.213 356.859C662.327 404.564 631.591 473.348 631.279 474.038L631.106 474.419H630.687C630.522 474.419 626.491 474.344 613.522 467.86Z" fill="#3F3D56"/>
<path d="M681.094 268.887C696.544 260.441 702.222 241.07 693.776 225.62C685.331 210.17 665.959 204.492 650.509 212.937C635.059 221.383 629.381 240.754 637.827 256.204C646.273 271.654 665.644 277.332 681.094 268.887Z" fill="#FFB8B8"/>
<path d="M702.308 433.742C702.021 431.986 702.123 430.188 702.606 428.476C703.09 426.763 703.942 425.177 705.105 423.83C706.267 422.483 707.711 421.407 709.334 420.678C710.957 419.949 712.721 419.584 714.5 419.611L725.535 394.079L742.687 397L726.596 432.838C726.354 435.824 725.025 438.617 722.861 440.689C720.697 442.761 717.848 443.967 714.854 444.078C711.86 444.19 708.929 443.199 706.617 441.294C704.305 439.389 702.772 436.702 702.308 433.742V433.742Z" fill="#FFB8B8"/>
<path d="M717.846 410.347L726.959 355.67L711.393 329.727L715.359 292.715L716.241 292.494C719.193 291.765 722.306 292.073 725.057 293.367C727.809 294.66 730.032 296.861 731.353 299.599L756.781 352.665L756.882 352.877L738.414 425.431L717.846 410.347Z" fill="#3F3D56"/>
<path d="M686.697 266.621C687.426 266.832 690.486 263.376 693.836 259.234C697.356 254.916 699.896 249.885 701.28 244.489C702.665 239.093 702.861 233.461 701.856 227.982C701.809 227.735 701.763 227.501 701.717 227.281C700.607 222.001 695.57 217.137 690.292 218.255C690.69 213.577 687.539 209.171 683.546 206.702C679.553 204.233 674.822 203.318 670.208 202.447C664.945 201.454 659.615 200.456 654.27 200.795C649.116 201.112 644.121 202.707 639.737 205.437C634.412 208.94 630.31 214.014 628.001 219.955C625.691 225.895 625.289 232.408 626.851 238.587C633.568 230.959 641.529 222.662 653.034 225.968C655.639 226.744 658.07 228.015 660.193 229.712C667.186 235.205 670.701 243.292 674.102 251.196C675.801 246.871 682.102 245.243 685.682 248.205C687.98 250.106 688.927 253.267 688.84 256.248C688.601 259.226 687.912 262.151 686.798 264.923" fill="#2F2E41"/>
<path d="M682.586 385.727H681.086V379.826C681.085 378.077 680.389 376.399 679.152 375.162C677.915 373.925 676.237 373.229 674.488 373.227H655.685C653.936 373.229 652.258 373.925 651.021 375.162C649.784 376.399 649.088 378.077 649.086 379.826V420.629C649.088 422.378 649.784 424.056 651.021 425.293C652.258 426.53 653.936 427.226 655.685 427.227H674.488C676.237 427.226 677.915 426.53 679.152 425.293C680.389 424.056 681.085 422.378 681.086 420.629V392.727H682.586V385.727Z" fill="#2F2E41"/>
<path d="M665.586 396.727C667.796 396.727 669.586 394.937 669.586 392.727C669.586 390.518 667.796 388.727 665.586 388.727C663.377 388.727 661.586 390.518 661.586 392.727C661.586 394.937 663.377 396.727 665.586 396.727Z" fill="white"/>
<path d="M668.85 408.666C668.09 407.057 666.985 405.635 665.615 404.499C664.245 403.364 662.643 402.542 660.921 402.093C659.199 401.644 657.4 401.577 655.65 401.899C653.9 402.22 652.241 402.921 650.791 403.953L627.213 389.197L614.751 401.339L648.341 421.708C650.236 424.029 652.916 425.575 655.873 426.052C658.831 426.529 661.861 425.904 664.389 424.297C666.917 422.689 668.768 420.21 669.59 417.329C670.412 414.448 670.149 411.366 668.85 408.666Z" fill="#FFB8B8"/>
<path d="M584.519 380.557L606.094 299.052C606.662 296.946 607.998 295.129 609.839 293.959C611.68 292.789 613.892 292.351 616.04 292.732L623.458 294.08L631.362 337.553L615.286 374.196L644.365 391.654L640.276 424.365L584.519 380.557Z" fill="#3F3D56"/>
<path d="M829.567 711.727H448.567C448.302 711.727 448.047 711.622 447.86 711.435C447.672 711.247 447.567 710.993 447.567 710.727C447.567 710.462 447.672 710.208 447.86 710.02C448.047 709.833 448.302 709.727 448.567 709.727H829.567C829.832 709.727 830.086 709.833 830.274 710.02C830.462 710.208 830.567 710.462 830.567 710.727C830.567 710.993 830.462 711.247 830.274 711.435C830.086 711.622 829.832 711.727 829.567 711.727Z" fill="#3F3D56"/>
</g>
<defs>
<clipPath id="clip0">
<rect width="830.567" height="711.727" fill="white"/>
</clipPath>
</defs>
</svg>
