<svg width="37" height="37" viewBox="0 0 37 37" fill="none" xmlns="http://www.w3.org/2000/svg">
<path d="M32.4876 4.51199C29.8199 1.84244 27.8163 2.24204 27.8163 2.24204L16.6201 13.4382L4.08823 25.9683L2.21973 34.778L11.0313 32.9095L23.5632 20.3831L34.7594 9.18694C34.7575 9.18694 35.159 7.18339 32.4876 4.51199ZM10.5077 31.8513L7.50333 32.4988C7.17083 31.8607 6.74007 31.2789 6.22683 30.7746C5.72205 30.2614 5.14033 29.8301 4.50263 29.4962L5.15013 26.4937L6.01963 25.626C6.01963 25.626 7.65318 25.6593 9.49948 27.5056C11.3439 29.3482 11.3791 30.9855 11.3791 30.9855L10.5077 31.8513Z" fill="#0997E3"/>
</svg>
