<svg width="52" height="52" viewBox="0 0 52 52" fill="none" xmlns="http://www.w3.org/2000/svg">
<path d="M51.9725 26.4865C51.9725 24.356 51.7956 22.8014 51.4127 21.1892H26.5179V30.8048H41.1306C40.8361 33.1944 39.2452 36.7932 35.7097 39.2114L35.6602 39.5333L43.5315 45.492L44.0768 45.5452C49.0852 41.0252 51.9725 34.3748 51.9725 26.4865" fill="#4285F4"/>
<path d="M26.518 51.8214C33.677 51.8214 39.6871 49.5182 44.077 45.5453L35.7099 39.2114C33.4709 40.7373 30.4657 41.8025 26.518 41.8025C19.5062 41.8025 13.5551 37.2826 11.4336 31.0353L11.1227 31.0611L2.93798 37.2509L2.83095 37.5416C7.19119 46.0058 16.1475 51.8214 26.518 51.8214Z" fill="#34A853"/>
<path d="M11.4335 31.0353C10.8738 29.4231 10.5498 27.6956 10.5498 25.9107C10.5498 24.1256 10.8738 22.3983 11.4041 20.7861L11.3893 20.4428L3.10201 14.1535L2.83086 14.2796C1.0338 17.7919 0.00263977 21.7362 0.00263977 25.9107C0.00263977 30.0852 1.0338 34.0292 2.83086 37.5416L11.4335 31.0353" fill="#FBBC05"/>
<path d="M26.518 10.0187C31.4969 10.0187 34.8554 12.1204 36.7704 13.8767L44.2536 6.73678C39.6578 2.56229 33.677 0 26.518 0C16.1475 0 7.19119 5.81547 2.83095 14.2796L11.4042 20.7861C13.555 14.5388 19.5062 10.0187 26.518 10.0187" fill="#EB4335"/>
</svg>
