<svg width="782" height="589" viewBox="0 0 782 589" fill="none" xmlns="http://www.w3.org/2000/svg">
<g clip-path="url(#clip0)">
<path d="M588.521 139.968H585.284V51.312C585.284 37.7032 579.877 24.6518 570.251 15.0289C560.626 5.40609 547.571 1.71716e-05 533.959 1.84465e-10H346.079C339.339 -1.80675e-05 332.664 1.32719 326.437 3.90584C320.21 6.48449 314.552 10.2641 309.786 15.0288C305.02 19.7936 301.239 25.4501 298.66 31.6756C296.081 37.901 294.753 44.5734 294.753 51.3118V537.688C294.753 544.426 296.081 551.099 298.66 557.324C301.239 563.55 305.02 569.206 309.786 573.971C314.552 578.736 320.21 582.516 326.437 585.094C332.664 587.673 339.338 589 346.079 589H533.959C547.571 589 560.626 583.594 570.251 573.971C579.877 564.348 585.284 551.297 585.284 537.688V203.076H588.521L588.521 139.968Z" fill="#3F3D56"/>
<path d="M536.03 13.3496H511.505C512.633 16.1139 513.063 19.1131 512.759 22.083C512.454 25.0528 511.423 27.9022 509.758 30.38C508.092 32.8579 505.842 34.8882 503.207 36.2921C500.571 37.696 497.631 38.4304 494.645 38.4306H387.011C384.025 38.4304 381.084 37.696 378.449 36.2921C375.813 34.8882 373.564 32.8579 371.898 30.38C370.232 27.9022 369.202 25.0528 368.897 22.083C368.592 19.1131 369.023 16.1139 370.151 13.3496H347.245C337.079 13.3496 327.33 17.3868 320.142 24.573C312.954 31.7592 308.916 41.5059 308.916 51.6687V537.331C308.916 542.363 309.907 547.346 311.833 551.995C313.759 556.644 316.583 560.869 320.142 564.427C323.701 567.985 327.926 570.808 332.577 572.734C337.227 574.659 342.211 575.65 347.245 575.65H536.03C541.063 575.65 546.047 574.659 550.698 572.734C555.348 570.808 559.573 567.985 563.132 564.427C566.692 560.869 569.515 556.645 571.441 551.995C573.367 547.346 574.359 542.363 574.359 537.331V51.6687C574.359 46.6366 573.367 41.6537 571.441 37.0046C569.515 32.3555 566.692 28.1313 563.132 24.573C559.573 21.0147 555.348 18.1922 550.698 16.2665C546.047 14.3407 541.063 13.3496 536.03 13.3496Z" fill="white"/>
<path d="M480.743 223.943C499.521 223.943 514.743 222.494 514.743 220.706C514.743 218.918 499.521 217.469 480.743 217.469C461.965 217.469 446.743 218.918 446.743 220.706C446.743 222.494 461.965 223.943 480.743 223.943Z" fill="#E6E6E6"/>
<g id="message">
<path d="M782 80.8244H468.995V183.551H480.852V210.419L507.725 183.551H782V80.8244Z" fill="#0997E3"/>
<path d="M646.165 115.612H503.833V119.93H646.165V115.612Z" fill="white"/>
<path d="M751.905 130.55H503.833V134.868H751.905V130.55Z" fill="white"/>
<path d="M751.662 145.488H503.833V149.806H751.662V145.488Z" fill="white"/>
</g>
<g id="message">
<path d="M702.036 390.662H452.185V472.662H461.649V494.108L483.1 472.662H702.036V390.662Z" fill="#0997E3"/>
<path d="M593.607 418.43H479.993V421.877H593.607V418.43Z" fill="white"/>
<path d="M678.013 430.354H479.993V433.801H678.013V430.354Z" fill="white"/>
<path d="M677.819 442.279H479.993V445.726H677.819V442.279Z" fill="white"/>
</g>
<path d="M461.562 504.904C476.551 504.904 488.702 503.747 488.702 502.32C488.702 500.893 476.551 499.736 461.562 499.736C446.573 499.736 434.422 500.893 434.422 502.32C434.422 503.747 446.573 504.904 461.562 504.904Z" fill="#E6E6E6"/>
<path d="M386.838 343.722C405.616 343.722 420.838 342.272 420.838 340.484C420.838 338.696 405.616 337.247 386.838 337.247C368.06 337.247 352.838 338.696 352.838 340.484C352.838 342.272 368.06 343.722 386.838 343.722Z" fill="#E6E6E6"/>
<g id="message">
<path d="M178.448 241.899H398.563V314.14H390.225V333.034L371.327 314.14H178.448V241.899Z" fill="#0997E3"/>
<path d="M301.371 265.807H201.279V268.844H301.371V265.807Z" fill="white"/>
<path d="M375.731 276.312H201.279V279.349H375.731V276.312Z" fill="white"/>
<path d="M375.56 286.817H201.279V289.854H375.56V286.817Z" fill="white"/>
</g>
<path d="M71.2253 418.115C72.2807 419.932 74.0148 421.255 76.0462 421.794C78.0775 422.332 80.2397 422.042 82.0571 420.987C83.8744 419.932 85.1981 418.198 85.7369 416.167C86.2756 414.137 85.9854 411.975 84.9299 410.158C84.7084 409.787 84.4589 409.433 84.1836 409.099L90.8495 361.601L91.0491 360.178L92.4032 350.486L92.6028 349.089L91.8649 349.124L78.9502 349.714L75.487 349.87L75.053 358.712L72.5967 408.423C71.3134 409.65 70.4803 411.273 70.2316 413.031C69.9828 414.789 70.3328 416.58 71.2253 418.115Z" fill="#F1B5BE"/>
<path d="M91.0108 360.611L74.6116 359.106C73.761 359.026 72.9767 358.613 72.4297 357.956C71.8827 357.3 71.6174 356.454 71.6916 355.603L74.7334 321.51C74.8808 319.854 75.359 318.244 76.1396 316.776C76.9202 315.308 77.9875 314.012 79.2782 312.963C80.5688 311.915 82.0567 311.136 83.6538 310.673C85.2509 310.21 86.9247 310.072 88.5761 310.266C90.2276 310.461 91.8232 310.985 93.2685 311.808C94.7138 312.63 95.9794 313.734 96.9904 315.054C98.0015 316.374 98.7374 317.883 99.1547 319.492C99.572 321.102 99.6622 322.778 99.4199 324.423L94.5026 357.864C94.3896 358.63 94.0051 359.331 93.4191 359.837C92.8331 360.344 92.0846 360.623 91.3099 360.624C91.211 360.624 91.111 360.62 91.0108 360.611Z" fill="#CCCCCC"/>
<path d="M78.5825 333.065C76.9238 328.368 76.847 323.257 78.3636 318.513C79.8802 313.768 82.9071 309.649 86.9828 306.784C93.1668 302.554 101.629 301.035 110.742 311.882C128.969 333.574 133.743 357.436 133.743 357.436L96.4215 363.51C96.4215 363.51 83.7282 348 78.5825 333.065Z" fill="#CCCCCC"/>
<path d="M138.943 577.416H149.583L154.645 536.383L138.941 536.384L138.943 577.416Z" fill="#A0616A"/>
<path d="M170.105 587.293L136.663 587.294L136.662 574.377L159.785 574.376C161.141 574.376 162.482 574.642 163.734 575.161C164.986 575.679 166.124 576.439 167.082 577.397C168.041 578.355 168.801 579.492 169.319 580.744C169.838 581.995 170.105 583.337 170.105 584.692L170.105 587.293Z" fill="#2F2E41"/>
<path d="M51.4607 568.138L61.5636 571.477L79.2517 534.107L64.3411 529.18L51.4607 568.138Z" fill="#A0616A"/>
<path d="M77.9472 587.294L46.1947 576.802L50.2496 564.537L72.2043 571.792C73.491 572.217 74.6813 572.891 75.7073 573.776C76.7333 574.661 77.5748 575.74 78.1839 576.95C78.793 578.16 79.1577 579.478 79.2572 580.83C79.3567 582.181 79.189 583.538 78.7637 584.824L77.9472 587.294Z" fill="#2F2E41"/>
<path d="M112.234 293.414C122.564 287.768 126.361 274.819 120.713 264.492C115.066 254.164 102.114 250.368 91.7834 256.014C81.4529 261.66 77.6563 274.609 83.3035 284.936C88.9506 295.264 101.903 299.06 112.234 293.414Z" fill="#F1B5BE"/>
<path d="M120.673 565.993L110.791 500.79C110.686 500.094 110.342 499.456 109.818 498.986C109.295 498.515 108.624 498.241 107.92 498.21C107.217 498.18 106.525 498.394 105.962 498.817C105.399 499.24 105.001 499.845 104.836 500.53L89.7874 562.668C89.5503 563.62 88.9659 564.449 88.1489 564.992C87.3319 565.536 86.3413 565.754 85.3714 565.605L43.8626 558.935C43.3123 558.847 42.7872 558.642 42.3227 558.334C41.8582 558.025 41.4651 557.621 41.1697 557.149C40.8743 556.676 40.6836 556.146 40.6102 555.593C40.5369 555.041 40.5827 554.479 40.7446 553.946L94.8695 375.55C95.0233 375.042 95.0416 374.503 94.9225 373.986L93.1203 366.179C92.9224 365.333 93.0137 364.445 93.3797 363.656C93.7457 362.868 94.3653 362.224 95.1397 361.829C102.51 358.069 121.173 350.253 135.265 358.815C135.723 359.094 136.118 359.463 136.429 359.899C136.739 360.336 136.957 360.831 137.07 361.355L179.352 560.029C179.467 560.569 179.466 561.128 179.349 561.668C179.233 562.208 179.003 562.717 178.674 563.161C178.346 563.605 177.928 563.975 177.446 564.246C176.964 564.516 176.431 564.682 175.88 564.731L124.883 569.297C124.766 569.307 124.649 569.312 124.533 569.312C123.6 569.31 122.697 568.975 121.989 568.366C121.281 567.757 120.815 566.916 120.673 565.993Z" fill="#2F2E41"/>
<path d="M87.8732 259.657C89.4801 258.691 90.9062 257.452 92.0873 255.995C92.6697 255.26 93.0531 254.387 93.2004 253.46C93.3478 252.534 93.2543 251.585 92.9288 250.705C91.8518 248.329 88.6512 247.577 86.1715 248.387C83.6918 249.197 81.7758 251.139 79.9634 253.015C78.367 254.667 76.725 256.392 75.9677 258.561C75.2104 260.729 75.5994 263.479 77.4829 264.795C79.3314 266.086 81.989 265.558 83.7668 264.171C85.5447 262.784 86.6452 260.726 87.6945 258.73L87.8732 259.657Z" fill="#2F2E41"/>
<path d="M80.6533 253.584C80.5351 247.58 73.6886 243.274 67.776 244.338C61.8634 245.402 57.3185 250.442 55.0435 256.001C50.2368 267.746 53.8451 281.146 58.4766 292.961C63.108 304.776 68.8394 316.77 68.1638 329.442C67.7073 336.292 65.4086 342.891 61.5107 348.543C57.6128 354.195 52.2603 358.689 46.0188 361.551C52.6918 364.575 60.668 361.451 66.2754 356.737C78.7285 346.268 83.5353 327.629 77.6982 312.446C74.8191 304.957 69.7453 298.55 65.7841 291.572C61.8229 284.594 58.9166 276.371 60.9617 268.613C63.0068 260.855 71.7102 254.572 79.1511 257.577L80.6533 253.584Z" fill="#2F2E41"/>
<path d="M103.287 284.171C101.429 281.032 99.5525 276.91 102.95 274.166C103.689 273.596 104.534 273.18 105.436 272.942C106.337 272.703 107.278 272.647 108.201 272.778C112.031 273.239 116.201 273.429 119.908 272.038C121.298 271.56 122.578 270.807 123.671 269.825C124.765 268.843 125.65 267.651 126.274 266.32C128.187 261.787 125.791 256.279 121.791 253.413C119.343 251.724 116.451 250.795 113.478 250.742C110.504 250.69 107.582 251.516 105.076 253.118C99.8947 250.83 93.6079 251.847 88.9007 254.997C84.1935 258.147 80.9725 263.19 79.2226 268.576C77.6108 273.212 77.3332 278.207 78.4216 282.993C79.2976 286.322 80.9631 289.391 83.2772 291.941C85.5913 294.49 88.4858 296.445 91.7156 297.638C92.9739 298.134 94.3403 298.291 95.6781 298.092C97.0159 297.894 98.278 297.347 99.338 296.508C99.338 296.508 102.276 293.944 103.195 290.855C103.902 288.483 104.28 285.849 103.287 284.171Z" fill="#2F2E41"/>
<path d="M166.526 303.187C166.42 303.656 166.35 304.132 166.318 304.611L129.034 326.114L119.972 320.898L110.311 333.543L125.456 344.335C126.68 345.207 128.154 345.658 129.656 345.622C131.158 345.585 132.607 345.062 133.787 344.132L172.233 313.809C173.968 314.451 175.858 314.55 177.651 314.093C179.443 313.635 181.054 312.642 182.269 311.247C183.483 309.852 184.244 308.12 184.45 306.282C184.656 304.444 184.298 302.587 183.422 300.957C182.547 299.328 181.196 298.003 179.549 297.16C177.902 296.317 176.038 295.995 174.204 296.237C172.369 296.48 170.652 297.274 169.281 298.516C167.909 299.757 166.949 301.387 166.526 303.188V303.187Z" fill="#F1B5BE"/>
<path d="M127.788 327.133L115.738 342.746C115.395 343.19 114.96 343.555 114.464 343.817C113.967 344.078 113.42 344.229 112.859 344.259C112.299 344.29 111.738 344.2 111.216 343.994C110.694 343.789 110.222 343.473 109.832 343.069L96.1908 328.907C93.9268 327.141 92.456 324.549 92.1008 321.7C91.7456 318.851 92.5351 315.977 94.2961 313.709C96.0571 311.441 98.6459 309.964 101.495 309.601C104.344 309.239 107.22 310.021 109.493 311.775L126.603 321.34C127.093 321.614 127.518 321.99 127.849 322.443C128.18 322.896 128.41 323.415 128.522 323.965C128.635 324.515 128.627 325.082 128.5 325.629C128.374 326.175 128.131 326.688 127.788 327.133Z" fill="#CCCCCC"/>
<path d="M250.364 589H1.01362C0.744794 589 0.486974 588.893 0.296883 588.703C0.106792 588.513 0 588.255 0 587.987C0 587.718 0.106792 587.46 0.296883 587.27C0.486974 587.08 0.744794 586.973 1.01362 586.973H250.364C250.633 586.973 250.891 587.08 251.081 587.27C251.271 587.46 251.378 587.718 251.378 587.987C251.378 588.255 251.271 588.513 251.081 588.703C250.891 588.893 250.633 589 250.364 589H250.364Z" fill="#CCCCCC"/>
</g>
<defs>
<clipPath id="clip0">
<rect width="782" height="589" fill="white"/>
</clipPath>
</defs>
</svg>
