<svg width="60" height="60" viewBox="0 0 60 60" fill="none" xmlns="http://www.w3.org/2000/svg">
<path d="M30 27.5H22.5M30 20V27.5V20ZM30 27.5V35V27.5ZM30 27.5H37.5H30Z" stroke="black" stroke-width="2" stroke-linecap="round"/>
<path d="M35 47.5C44.4275 47.5 49.1425 47.5 52.07 44.57C55 41.6425 55 36.9275 55 27.5C55 18.0725 55 13.3575 52.07 10.43C49.1425 7.5 44.4275 7.5 35 7.5H25C15.5725 7.5 10.8575 7.5 7.93 10.43C5 13.3575 5 18.0725 5 27.5C5 36.9275 5 41.6425 7.93 44.57C9.5625 46.205 11.75 46.9275 15 47.245" stroke="black" stroke-width="2" stroke-linecap="round" stroke-linejoin="round"/>
<path d="M35.0001 47.5C31.9101 47.5 28.5051 48.75 25.3976 50.3625C20.4026 52.955 17.9051 54.2525 16.6751 53.425C15.4451 52.6 15.6776 50.0375 16.1451 44.915L16.2501 43.75" stroke="black" stroke-width="2" stroke-linecap="round"/>
</svg>
