<svg width="53" height="68" viewBox="0 0 53 68" fill="none" xmlns="http://www.w3.org/2000/svg">
<path d="M44.9574 32.1087L9.21784 8.7337C8.93773 8.55046 8.62309 8.47703 8.31181 8.52228C8.00053 8.56752 7.70589 8.72949 7.46336 8.9887C7.23174 9.24262 7.05886 9.57602 6.96416 9.95142C6.86945 10.3268 6.85668 10.7293 6.92726 11.1137L11.2323 31.875H29.6056V36.125H11.2323L6.86228 56.8224C6.79605 57.1434 6.78831 57.4803 6.83971 57.8059C6.89111 58.1315 7.00019 58.4368 7.15821 58.6972C7.31622 58.9577 7.51874 59.166 7.74949 59.3054C7.98024 59.4448 8.23278 59.5114 8.48681 59.4999C8.74111 59.498 8.99151 59.4179 9.21784 59.2662L44.9574 35.8912C45.2235 35.7129 45.4468 35.4419 45.6027 35.1083C45.7587 34.7746 45.8412 34.391 45.8412 34C45.8412 33.6089 45.7587 33.2253 45.6027 32.8916C45.4468 32.558 45.2235 32.287 44.9574 32.1087Z" fill="black"/>
</svg>
