<svg width="114" height="114" viewBox="0 0 114 114" fill="none" xmlns="http://www.w3.org/2000/svg">
<path d="M32.0625 99.75H44.5811C38.7792 92.7362 35.6111 83.915 35.625 74.8125C35.625 61.56 42.2014 49.8394 52.2761 42.75H14.25V81.9375C14.25 86.6617 16.1267 91.1923 19.4672 94.5328C22.8077 97.8733 27.3383 99.75 32.0625 99.75Z" fill="white"/>
<path d="M99.75 35.625H14.25V32.0625C14.25 27.3383 16.1267 22.8077 19.4672 19.4672C22.8077 16.1267 27.3383 14.25 32.0625 14.25H81.9375C86.6617 14.25 91.1923 16.1267 94.5328 19.4672C97.8733 22.8077 99.75 27.3383 99.75 32.0625V35.625Z" fill="white"/>
<path d="M74.8125 106.875C79.023 106.875 83.1923 106.046 87.0823 104.434C90.9723 102.823 94.5068 100.461 97.4841 97.4841C100.461 94.5068 102.823 90.9723 104.434 87.0823C106.046 83.1923 106.875 79.023 106.875 74.8125C106.875 70.602 106.046 66.4327 104.434 62.5427C102.823 58.6527 100.461 55.1182 97.4841 52.1409C94.5068 49.1636 90.9723 46.8019 87.0823 45.1906C83.1923 43.5793 79.023 42.75 74.8125 42.75C66.309 42.75 58.1538 46.128 52.1409 52.1409C46.128 58.1538 42.75 66.309 42.75 74.8125C42.75 83.316 46.128 91.4712 52.1409 97.4841C58.1538 103.497 66.309 106.875 74.8125 106.875ZM71.25 60.5625C71.25 59.6177 71.6253 58.7115 72.2934 58.0434C72.9615 57.3753 73.8677 57 74.8125 57C75.7573 57 76.6635 57.3753 77.3316 58.0434C77.9997 58.7115 78.375 59.6177 78.375 60.5625V71.25H85.5C86.4448 71.25 87.351 71.6253 88.0191 72.2934C88.6872 72.9615 89.0625 73.8677 89.0625 74.8125C89.0625 75.7573 88.6872 76.6635 88.0191 77.3316C87.351 77.9997 86.4448 78.375 85.5 78.375H74.8125C73.8677 78.375 72.9615 77.9997 72.2934 77.3316C71.6253 76.6635 71.25 75.7573 71.25 74.8125V60.5625Z" fill="white"/>
</svg>
